<?xml version="1.0" encoding="utf-8"?>
<!-- Generator: Adobe Illustrator 16.0.0, SVG Export Plug-In . SVG Version: 6.00 Build 0)  -->
<!DOCTYPE svg PUBLIC "-//W3C//DTD SVG 1.1//EN" "http://www.w3.org/Graphics/SVG/1.1/DTD/svg11.dtd">
<svg version="1.1" id="Layer_1" xmlns="http://www.w3.org/2000/svg" xmlns:xlink="http://www.w3.org/1999/xlink" x="0px" y="0px"
	 width="563.486px" height="109.363px" viewBox="0 0 563.486 109.363" enable-background="new 0 0 563.486 109.363"
	 xml:space="preserve">
<g>
	<path fill="#FFFFFF" d="M145.022,38.075c12.485,0,22.114,10.556,22.114,22.11c0,11.479-9.481,22.111-22.114,22.111
		c-12.324,0-21.957-10.398-21.957-21.803C123.065,47.167,133.928,38.075,145.022,38.075z M145.104,77.443
		c8.167,0,16.638-6.471,16.638-17.49c0-11.091-9.397-17.026-16.638-17.026c-7.707,0-16.646,6.317-16.646,17.487
		C128.457,70.203,136.397,77.443,145.104,77.443z"/>
	<path fill="#FFFFFF" d="M267.858,38.261h5.388v7.17h0.156c1.619-2.556,5.779-6.5,12.946-6.5c5.158,0,9.473,1.316,13.324,5.183
		c3.158,3.095,5.242,7.961,5.242,14.92v23.273h-5.391V59.033c0-5.489-1.697-9.353-4.012-11.596
		c-2.926-2.862-6.777-3.632-9.164-3.632c-2.391,0-6.244,0.77-9.173,3.632c-2.308,2.243-4.001,6.106-3.929,11.596v23.273h-5.388
		V38.261z"/>
	<path fill="#FFFFFF" d="M312.2,39.544h9.398v3.776h0.152c1.93-2.772,3.85-5.236,9.17-5.236h0.848v9.937
		c-9.318,0.388-9.318,7.706-9.318,10.245v24.041H312.2V39.544z"/>
	<path fill="#FFFFFF" d="M448.94,59.953c0-12.941,10.557-22.878,22.805-22.878c12.094,0,22.65,9.628,22.65,22.724
		c0,14.025-10.787,22.881-22.65,22.881C459.032,82.68,448.94,72.203,448.94,59.953z M484.146,60.031c0-7.78-6.008-13.56-12.4-13.56
		c-5.318,0-12.561,4.546-12.561,13.481c0,8.094,6.09,13.332,12.561,13.332C479.216,73.285,484.146,66.812,484.146,60.031z"/>
	<path fill="#FFFFFF" d="M500.36,47.628h-5.988v-9.093h5.988v-14.25h10.244v14.25h6.166v9.093h-6.166v33.665H500.36V47.628z"/>
	<path fill="#FFFFFF" d="M426.153,38.371c-5.215,0-9.93,2.271-13.332,5.932c-3.398-3.661-8.121-5.932-13.33-5.932
		c-10.333,0-18.741,8.924-18.741,19.885v24.48h10.758v-24.48c0-5.034,3.586-9.127,7.982-9.127c4.205,0,7.654,3.736,7.955,8.459
		c-0.008,0.229-0.035,0.445-0.035,0.668v24.48h10.762v-0.059h0.059V58.256c0-0.223-0.023-0.439-0.031-0.668
		c0.301-4.723,3.748-8.459,7.953-8.459c4.398,0,7.984,4.093,7.984,9.127v24.422h10.758V58.256
		C444.896,47.295,436.489,38.371,426.153,38.371z"/>
	<rect x="171.651" y="39.115" fill="#FFFFFF" width="5.404" height="56.99"/>
	<path fill="#FFFFFF" d="M193.641,38.075c-11.093,0-21.956,9.061-21.989,22.351h5.396c0-0.006,0-0.006,0-0.006
		c0-11.176,8.951-17.493,16.667-17.493c7.258,0,16.668,5.936,16.668,17.026c0,11.02-8.486,17.49-16.668,17.49
		c-4.057,0-7.938-1.586-10.939-4.252v6.172c3.187,1.852,6.883,2.934,10.866,2.934c12.653,0,22.146-10.633,22.146-22.111
		C215.786,48.631,206.14,38.075,193.641,38.075z"/>
	<path fill="#FFFFFF" d="M259.948,48.862c-3.007-5.24-9.556-10.713-18.803-10.787c-12.248,0.232-21.877,10.244-21.877,22.19
		c0,12.477,10.17,22.031,21.957,22.031c9.704,0,17.796-6.393,20.723-14.793h-5.701c-1.926,5.238-7.396,9.787-15.102,9.939
		c-8.24,0-15.947-7.01-16.332-15.254h0.006c-0.235-2.236-0.319-5.596,0.806-8.15h0.011c2.654-7.629,9.747-11.112,15.59-11.112
		c6.702,0,14.791,4.469,16.486,14.413h-24.183v4.85h29.654C263.414,58.107,262.796,53.405,259.948,48.862z"/>
	<path fill="#FFFFFF" d="M376.473,59.34c0-10.787-8.551-22.494-22.109-22.494c-13.18,0-22.498,11.092-22.498,23.186
		c0,12.48,9.859,22.648,22.576,22.648c10.008,0,18.178-7.162,20.645-14.863h-10.785c-1.928,3.539-5.316,5.469-9.859,5.469
		c-7.09,0-11.059-5.621-11.727-8.498c-0.617-1.887-1.23-5-0.352-8.525h-0.023c0.051-0.207,0.117-0.395,0.172-0.59
		c0.02-0.068,0.039-0.125,0.055-0.191c2.148-7.283,8.227-9.238,11.875-9.238c5.082,0,10.402,3.157,11.551,10.02h-17.984V64.5h27.848
		C376.165,63.111,376.473,61.344,376.473,59.34z"/>
	<path fill="#FFFFFF" d="M561.325,59.34c0-10.787-8.547-22.494-22.105-22.494c-13.176,0-22.502,11.092-22.502,23.186
		c0,12.48,9.865,22.648,22.578,22.648c10.014,0,18.182-7.162,20.65-14.863h-10.793c-1.924,3.539-5.314,5.469-9.857,5.469
		c-7.082,0-11.053-5.621-11.723-8.498c-0.619-1.887-1.232-5-0.354-8.525h-0.02c0.051-0.207,0.115-0.395,0.168-0.59
		c0.021-0.068,0.037-0.125,0.055-0.191c2.148-7.283,8.227-9.238,11.873-9.238c5.084,0,10.396,3.157,11.557,10.02h-18.639V64.5
		h28.496C561.021,63.111,561.325,61.344,561.325,59.34z"/>
	<path fill="#FFFFFF" d="M53.521,107.363c-29.599,0-53.682-24.074-53.682-53.686h11.242c0,23.406,19.039,42.447,42.439,42.447
		c23.401,0,42.443-19.041,42.443-42.447c0-23.396-19.042-42.435-42.443-42.435V0c29.603,0,53.686,24.082,53.686,53.678
		C107.206,83.289,83.123,107.363,53.521,107.363L53.521,107.363z"/>
	<path fill="#FFFFFF" d="M45.394,92.629c-10.401-2.168-19.336-8.268-25.16-17.148c-5.817-8.887-7.832-19.523-5.658-29.926
		c2.175-10.405,8.263-19.337,17.15-25.16c8.896-5.818,19.519-7.831,29.926-5.658c21.477,4.48,35.305,25.599,30.819,47.07
		l-11.002-2.291c3.212-15.409-6.705-30.56-22.118-33.772c-7.463-1.562-15.087-0.121-21.465,4.061
		c-6.379,4.173-10.749,10.587-12.31,18.051c-1.556,7.466-0.111,15.083,4.068,21.466c4.171,6.375,10.581,10.752,18.052,12.305
		L45.394,92.629L45.394,92.629z"/>
	<path fill="#FFFFFF" d="M53.556,79.477c-0.434,0-0.871-0.012-1.309-0.031c-6.875-0.34-13.216-3.348-17.843-8.445
		c-4.623-5.113-6.984-11.711-6.643-18.594l11.22,0.552c-0.186,3.884,1.144,7.614,3.755,10.497c2.607,2.881,6.189,4.572,10.065,4.764
		c3.871,0.178,7.612-1.141,10.484-3.752c2.891-2.604,4.581-6.182,4.776-10.062c0.395-8.016-5.806-14.865-13.822-15.259l0.562-11.228
		c14.209,0.71,25.188,12.831,24.485,27.038c-0.343,6.887-3.339,13.221-8.448,17.842C66.055,77.133,59.963,79.477,53.556,79.477
		L53.556,79.477z"/>
</g>
</svg>
