<?xml version="1.0" encoding="utf-8"?>
<!-- Generator: Adobe Illustrator 16.0.0, SVG Export Plug-In . SVG Version: 6.00 Build 0)  -->
<!DOCTYPE svg PUBLIC "-//W3C//DTD SVG 1.1//EN" "http://www.w3.org/Graphics/SVG/1.1/DTD/svg11.dtd">
<svg version="1.1" id="Layer_1" xmlns="http://www.w3.org/2000/svg" xmlns:xlink="http://www.w3.org/1999/xlink" x="0px" y="0px"
	 width="563.125px" height="109.296px" viewBox="0 0 563.125 109.296" enable-background="new 0 0 563.125 109.296"
	 xml:space="preserve">
<g>
	<path fill="#1D5632" d="M145.09,38.053c12.479,0,22.098,10.548,22.098,22.095c0,11.473-9.473,22.097-22.098,22.097
		c-12.316,0-21.943-10.392-21.943-21.787C123.146,47.14,134.004,38.053,145.09,38.053z M145.17,77.396
		c8.164,0,16.631-6.468,16.631-17.479c0-11.088-9.393-17.018-16.631-17.018c-7.701,0-16.635,6.313-16.635,17.476
		C128.535,70.158,136.471,77.396,145.17,77.396z"/>
	<path fill="#1D5632" d="M267.848,38.237h5.385V45.4h0.156c1.617-2.551,5.773-6.494,12.938-6.494c5.154,0,9.469,1.315,13.316,5.179
		c3.156,3.093,5.238,7.956,5.238,14.911v23.26h-5.391v-23.26c0-5.484-1.695-9.347-4.006-11.588c-2.924-2.859-6.775-3.63-9.158-3.63
		c-2.389,0-6.24,0.771-9.168,3.63c-2.309,2.241-4,6.104-3.926,11.588v23.26h-5.385V38.237z"/>
	<path fill="#4E9D2D" d="M312.16,39.521h9.395v3.775h0.15c1.928-2.772,3.848-5.235,9.166-5.235h0.846v9.932
		C322.4,48.378,322.4,55.69,322.4,58.23v24.025h-10.24V39.521z"/>
	<path fill="#4E9D2D" d="M448.814,59.918c0-12.935,10.547-22.866,22.789-22.866c12.088,0,22.637,9.622,22.637,22.71
		c0,14.016-10.781,22.867-22.637,22.867C458.898,82.629,448.814,72.159,448.814,59.918z M483.992,59.995
		c0-7.776-6-13.554-12.389-13.554c-5.312,0-12.555,4.546-12.555,13.477c0,8.088,6.09,13.321,12.555,13.321
		C479.066,73.239,483.992,66.771,483.992,59.995z"/>
	<path fill="#4E9D2D" d="M500.199,47.598h-5.984V38.51h5.984V24.271h10.24V38.51h6.16v9.088h-6.16v33.646h-10.24V47.598z"/>
	<path fill="#4E9D2D" d="M426.043,38.349c-5.213,0-9.924,2.27-13.324,5.927c-3.398-3.657-8.119-5.927-13.322-5.927
		c-10.326,0-18.73,8.916-18.73,19.873v24.464h10.752V58.222c0-5.032,3.582-9.123,7.979-9.123c4.203,0,7.65,3.733,7.947,8.453
		c-0.006,0.227-0.033,0.446-0.033,0.67v24.464h10.754v-0.06h0.059V58.222c0-0.224-0.023-0.443-0.029-0.67
		c0.297-4.72,3.744-8.453,7.949-8.453c4.395,0,7.979,4.091,7.979,9.123v24.404h10.748V58.222
		C444.77,47.265,436.371,38.349,426.043,38.349z"/>
	<rect x="171.701" y="39.091" fill="#1D5632" width="5.402" height="56.955"/>
	<path fill="#1D5632" d="M193.68,38.053c-11.088,0-21.945,9.052-21.979,22.335h5.393c0-0.006,0-0.006,0-0.006
		c0-11.168,8.945-17.481,16.654-17.481c7.256,0,16.66,5.93,16.66,17.018c0,11.011-8.48,17.479-16.66,17.479
		c-4.051,0-7.928-1.587-10.932-4.251v6.167c3.186,1.85,6.881,2.932,10.863,2.932c12.639,0,22.131-10.624,22.131-22.097
		C215.811,48.601,206.168,38.053,193.68,38.053z"/>
	<path fill="#1D5632" d="M259.939,48.83c-3.002-5.233-9.547-10.702-18.787-10.777c-12.242,0.231-21.865,10.237-21.865,22.173
		c0,12.471,10.166,22.019,21.943,22.019c9.699,0,17.785-6.388,20.711-14.782h-5.699c-1.922,5.234-7.391,9.781-15.09,9.935
		c-8.236,0-15.938-7.006-16.322-15.246h0.006c-0.234-2.232-0.318-5.594,0.805-8.146h0.01c2.654-7.622,9.742-11.104,15.58-11.104
		c6.701,0,14.783,4.466,16.479,14.402h-24.168v4.848h29.635C263.402,58.073,262.789,53.373,259.939,48.83z"/>
	<path fill="#4E9D2D" d="M376.396,59.304c0-10.779-8.549-22.481-22.1-22.481c-13.172,0-22.482,11.087-22.482,23.173
		c0,12.471,9.852,22.634,22.559,22.634c10.008,0,18.17-7.157,20.635-14.855h-10.779c-1.926,3.538-5.314,5.466-9.855,5.466
		c-7.08,0-11.047-5.616-11.715-8.492c-0.619-1.886-1.23-4.997-0.352-8.521h-0.023c0.051-0.205,0.117-0.395,0.17-0.59
		c0.021-0.064,0.037-0.123,0.057-0.189c2.145-7.278,8.221-9.232,11.863-9.232c5.08,0,10.398,3.154,11.545,10.012h-17.971v8.235
		h27.826C376.086,63.074,376.396,61.307,376.396,59.304z"/>
	<path fill="#4E9D2D" d="M561.125,59.304c0-10.779-8.541-22.481-22.09-22.481c-13.172,0-22.49,11.087-22.49,23.173
		c0,12.471,9.861,22.634,22.566,22.634c10.008,0,18.17-7.157,20.635-14.855h-10.781c-1.924,3.538-5.314,5.466-9.854,5.466
		c-7.078,0-11.047-5.616-11.717-8.492c-0.615-1.886-1.23-4.997-0.354-8.521h-0.018c0.047-0.205,0.115-0.395,0.168-0.59
		c0.021-0.064,0.037-0.123,0.057-0.189c2.145-7.278,8.221-9.232,11.863-9.232c5.08,0,10.393,3.154,11.551,10.012h-18.629v8.235
		h28.479C560.82,63.074,561.125,61.307,561.125,59.304z"/>
	<path fill="#C4D600" d="M53.648,107.296C24.068,107.296,0,83.236,0,53.646h11.234c0,23.391,19.025,42.42,42.414,42.42
		c23.385,0,42.416-19.029,42.416-42.42c0-23.382-19.031-42.408-42.416-42.408V0c29.582,0,53.65,24.068,53.65,53.646
		C107.299,83.236,83.23,107.296,53.648,107.296L53.648,107.296z"/>
	<path fill="#4E9D2D" d="M45.525,92.57c-10.395-2.166-19.324-8.262-25.145-17.137c-5.814-8.884-7.826-19.511-5.654-29.906
		c2.174-10.399,8.258-19.325,17.141-25.145c8.889-5.815,19.506-7.825,29.906-5.655c21.463,4.479,35.281,25.582,30.803,47.041
		L81.58,59.478c3.207-15.397-6.703-30.539-22.105-33.751c-7.461-1.56-15.078-0.119-21.455,4.06
		c-6.369,4.169-10.736,10.58-12.299,18.039c-1.555,7.458-0.113,15.075,4.064,21.453c4.17,6.37,10.576,10.744,18.041,12.297
		L45.525,92.57L45.525,92.57z"/>
	<path fill="#1D5632" d="M53.682,79.428c-0.432,0-0.871-0.012-1.309-0.032c-6.869-0.342-13.205-3.344-17.83-8.439
		c-4.621-5.108-6.982-11.705-6.639-18.582l11.215,0.553c-0.188,3.879,1.141,7.609,3.75,10.488c2.604,2.879,6.186,4.568,10.059,4.761
		c3.869,0.179,7.607-1.142,10.48-3.748c2.887-2.603,4.576-6.179,4.773-10.057c0.391-8.012-5.803-14.854-13.816-15.248l0.559-11.222
		c14.201,0.71,25.178,12.823,24.475,27.021c-0.344,6.883-3.336,13.212-8.441,17.831C66.174,77.086,60.084,79.428,53.682,79.428
		L53.682,79.428z"/>
</g>
</svg>
