<svg enable-background="new 0 0 59 59" viewBox="0 0 59 59" xmlns="http://www.w3.org/2000/svg"><g fill="#c1d72e"><path d="m25.295 34.593c0 2.718-2.204 4.921-4.92 4.921-2.717 0-4.919-2.203-4.919-4.921 0-2.717 2.202-4.92 4.919-4.92 2.716 0 4.92 2.203 4.92 4.92z"/><path d="m18.941 35.79c-.045-.074-.085-.151-.124-.227-.045-.087-.085-.177-.128-.266-.187-.392.124.347-.028-.07-.125-.341-.239-.684-.328-1.037-.049-.194-.091-.389-.128-.586-.02-.111-.031-.226-.055-.336-.044-.194.037.417.018.126-.005-.081-.018-.161-.025-.242-.048-.528-.05-1.061-.008-1.589.005-.058.057-.534.025-.281-.032.255.038-.221.051-.295.061-.33.14-.656.235-.978.097-.328.213-.648.338-.966.08-.203-.106.229-.011.029.043-.092.084-.186.128-.277.091-.19.187-.377.288-.562.194-.354.405-.698.632-1.031.318-.468.342-.495.655-.866 1.722-2.045 3.912-3.588 6.223-4.898 1.679-.952.169-3.545-1.514-2.59-3.961 2.246-7.802 5.324-9.42 9.725-.838 2.278-.894 4.911-.087 7.208.181.517.385 1.055.673 1.525 1.007 1.642 3.603.136 2.59-1.516z"/><path d="m42.083 34.593c0 2.718-2.203 4.921-4.92 4.921s-4.919-2.203-4.919-4.921c0-2.717 2.201-4.92 4.919-4.92 2.717 0 4.92 2.203 4.92 4.92z"/><path d="m35.73 35.79c-.045-.074-.085-.151-.124-.227-.045-.087-.086-.177-.128-.266-.187-.392.124.347-.028-.07-.125-.341-.239-.684-.328-1.037-.049-.194-.091-.389-.128-.586-.02-.111-.031-.226-.055-.336-.044-.194.037.417.018.126-.006-.081-.018-.161-.025-.242-.048-.528-.05-1.061-.008-1.589.005-.058.057-.534.025-.281-.032.255.037-.221.051-.295.061-.33.14-.656.235-.978.097-.328.213-.648.338-.966.08-.203-.106.229-.011.029.043-.092.084-.186.128-.277.091-.19.187-.377.288-.562.194-.354.405-.698.632-1.031.318-.468.342-.495.655-.866 1.722-2.045 3.913-3.588 6.225-4.898 1.679-.952.169-3.545-1.514-2.59-3.962 2.246-7.804 5.324-9.422 9.725-.838 2.278-.894 4.911-.086 7.208.182.517.385 1.055.674 1.525 1.005 1.641 3.601.136 2.588-1.516z"/><path d="m29.674 58.214c-15.737 0-28.54-12.803-28.54-28.54s12.803-28.54 28.54-28.54 28.54 12.803 28.54 28.54-12.803 28.54-28.54 28.54zm0-54.08c-14.083 0-25.54 11.457-25.54 25.54s11.457 25.54 25.54 25.54 25.54-11.457 25.54-25.54-11.457-25.54-25.54-25.54z"/></g></svg>